<!DOCTYPE svg PUBLIC "-//W3C//DTD SVG 1.1//EN" "http://www.w3.org/Graphics/SVG/1.1/DTD/svg11.dtd">
<!-- Uploaded to: SVG Repo, www.svgrepo.com, Transformed by: SVG Repo Mixer Tools -->
<svg width="800px" height="800px" viewBox="-2.4 -2.4 28.80 28.80" data-name="025_SCIENCE" id="_025_SCIENCE" xmlns="http://www.w3.org/2000/svg" fill="#000000">
<g id="SVGRepo_bgCarrier" stroke-width="0">
<path transform="translate(-2.4, -2.4), scale(0.8999999999999999)" d="M16,26.700884795437254C17.60333431872337,26.242001151751303,19.354103006958457,26.792923995368067,20.915721012134156,26.207599861276798C22.53732104339107,25.599793322807077,23.87368195428043,24.473321481696495,25.12817032020304,23.2794729195481C26.50113622367931,21.972873819652555,28.349125835747518,20.755957806513525,28.616016446038664,18.879523426607136C28.886195395916094,16.979969636670624,26.97948127248489,15.46136799073735,26.50456785106746,13.602400936705292C26.044191939913695,11.80033847077089,26.71311594034491,9.786915790924592,25.86962310838139,8.129238212767007C24.988637119698947,6.397877062121169,23.26923581947818,5.3082909043085555,21.70089634199047,4.161966766215825C19.91296765296589,2.8551413991081263,18.181307335289553,1.2979707194172847,16.000000000000004,0.9153745273749045C13.727148477391811,0.5167216995228436,11.285818716934715,0.8965454073242185,9.24717439151777,1.9776131366650365C7.227585063567704,3.048576237853074,5.957536609119402,5.072514382277616,4.639050228645033,6.93994488491478C3.3716995558001828,8.73494962600032,2.1655609375393388,10.588635744818726,1.6579780956611394,12.726527090774061C1.1484370612947075,14.872666159916445,1.013164481349412,17.169166851926466,1.7138232681896994,19.260726613020097C2.3957939371166193,21.296499854095273,4.243860720401299,22.62973870477696,5.547056599304813,24.335944197548347C6.876490108722075,26.076501233341443,7.376392718253907,28.987934740506347,9.512591751054854,29.47124203723446C11.835133183060528,29.99670862710081,13.710676207441177,27.356102631941127,16,26.700884795437254" fill="#ffb5af" strokewidth="0"/>
</g>
<g id="SVGRepo_tracerCarrier" stroke-linecap="round" stroke-linejoin="round"/>
<g id="SVGRepo_iconCarrier">
<defs>
<style>.cls-1{fill:#333;}</style>
</defs>
<path class="cls-1" d="M12,21.08a1,1,0,0,1-.5-.13l-7-4A1,1,0,0,1,4,16V8a1,1,0,0,1,.5-.87l7-4a1,1,0,0,1,1,0l7,4A1,1,0,0,1,20,8V16a1,1,0,0,1-.5.87l-7,4A1,1,0,0,1,12,21.08ZM6,15.46l6,3.47,6-3.47V8.54L12,5.07,6,8.54Z"/>
<path class="cls-1" d="M15,14.73a1,1,0,0,1-1-1V10.27a1,1,0,0,1,2,0v3.46A1,1,0,0,1,15,14.73Z"/>
<path class="cls-1" d="M12,16.46a1,1,0,0,1-.5-.13l-3-1.73a1,1,0,0,1-.37-1.37,1,1,0,0,1,1.37-.36l3,1.73A1,1,0,0,1,12.87,16,1,1,0,0,1,12,16.46Z"/>
<path class="cls-1" d="M9,11.27A1,1,0,0,1,8.5,9.4l3-1.73a1,1,0,1,1,1,1.73l-3,1.73A.93.93,0,0,1,9,11.27Z"/>
<path class="cls-1" d="M21,18.2a1,1,0,0,1-.5-.14l-2-1.15A1,1,0,0,1,18,16V8a1,1,0,0,1,.5-.87l2-1.15a1,1,0,0,1,1.37.36,1,1,0,0,1-.37,1.37L20,8.54v6.92l1.5.87A1,1,0,0,1,21,18.2Z"/>
<path class="cls-1" d="M3,18.2a1,1,0,0,1-.5-1.87L4,15.46V8.54L2.5,7.67A1,1,0,0,1,2.13,6.3,1,1,0,0,1,3.5,5.94l2,1.15A1,1,0,0,1,6,8V16a1,1,0,0,1-.5.87l-2,1.15A1,1,0,0,1,3,18.2Z"/>
</g>
</svg>