<svg width="794" height="595" viewBox="0 0 794 595" fill="none" xmlns="http://www.w3.org/2000/svg">
<path d="M111 153.127C111 144.843 117.716 138.127 126 138.127H696C704.284 138.127 711 144.843 711 153.127V533.254H111V153.127Z" fill="white"/>
<rect x="135" y="206.286" width="387" height="114.587" rx="15" fill="#F5F5F5"/>
<rect x="135" y="344.581" width="387" height="15.8051" rx="7.90254" fill="#F5F5F5"/>
<rect x="135" y="407.801" width="387" height="15.8051" rx="7.90253" fill="#F5F5F5"/>
<rect x="135" y="376.191" width="387" height="15.8051" rx="7.90254" fill="#F5F5F5"/>
<rect x="538" y="206.286" width="149" height="114.587" rx="15" fill="#F5F5F5"/>
<rect x="135" y="161.834" width="62" height="14.8172" rx="5" fill="#F5F5F5"/>
<rect x="221" y="161.834" width="62" height="14.8172" rx="5" fill="#F5F5F5"/>
<rect x="307" y="161.834" width="62" height="14.8172" rx="5" fill="#F5F5F5"/>
<rect x="393" y="161.834" width="62" height="14.8172" rx="5" fill="#F5F5F5"/>
<ellipse cx="674" cy="170.725" rx="13" ry="12.8416" fill="#F5F5F5"/>
<g filter="url(#filter0_d_586_794)">
<rect x="570" y="106.517" width="56" height="55.3178" rx="15" fill="#3097F5"/>
</g>
<g clip-path="url(#clip0_586_794)">
<path d="M607.315 132.165C606.732 131.027 605.804 130.096 604.661 129.501C603.518 128.907 602.215 128.679 600.935 128.848L600.873 128.787C599.856 127.809 598.492 127.262 597.072 127.263C595.652 127.264 594.289 127.813 593.273 128.793C592.424 129.621 591.883 130.708 591.739 131.878C590.858 132.065 590.05 132.498 589.411 133.127C588.963 133.554 588.607 134.066 588.365 134.632C588.122 135.198 587.998 135.807 588 136.422C588.008 137.666 588.515 138.856 589.41 139.731C590.305 140.607 591.515 141.095 592.774 141.09H601.7C603.36 141.099 604.955 140.456 606.136 139.304C607.317 138.152 607.988 136.585 608 134.945C608.003 133.977 607.768 133.024 607.315 132.165Z" fill="white"/>
</g>
<g filter="url(#filter1_d_586_794)">
<rect x="490" y="244.811" width="244" height="153.112" rx="15" fill="white"/>
</g>
<rect x="602" y="374.215" width="63.2203" height="15" rx="5" transform="rotate(-90 602 374.215)" fill="#F5F5F5"/>
<rect x="633" y="374.215" width="39.5127" height="15" rx="5" transform="rotate(-90 633 374.215)" fill="#F5F5F5"/>
<rect x="664" y="374.215" width="48.403" height="15" rx="5" transform="rotate(-90 664 374.215)" fill="#F5F5F5"/>
<rect x="695" y="374.215" width="24.6954" height="15" rx="5" transform="rotate(-90 695 374.215)" fill="#F5F5F5"/>
<rect x="514" y="310.995" width="64" height="63.2203" rx="15" fill="#F4F9FE"/>
<g clip-path="url(#clip1_586_794)">
<path d="M552.25 347.544V332.974C552.249 332.778 552.169 332.59 552.029 332.451C551.889 332.313 551.699 332.234 551.5 332.233H548C547.801 332.234 547.611 332.313 547.471 332.451C547.331 332.59 547.251 332.778 547.25 332.974V347.544H544.75V340.876C544.749 340.68 544.669 340.492 544.529 340.354C544.389 340.215 544.199 340.137 544 340.135H540.5C540.301 340.137 540.111 340.215 539.971 340.354C539.831 340.492 539.751 340.68 539.75 340.876V347.544H536V349.026H556V347.544H552.25Z" fill="#3097F5"/>
</g>
<g filter="url(#filter2_d_586_794)">
<rect x="490" y="439.411" width="56" height="55.3177" rx="15" fill="#F1D023"/>
</g>
<g clip-path="url(#clip2_586_794)">
<path d="M525 464.047C524.014 463.778 523.012 463.567 522 463.415V461.143C522 460.095 521.579 459.09 520.828 458.349C520.078 457.608 519.061 457.192 518 457.192C516.939 457.192 515.922 457.608 515.172 458.349C514.421 459.09 514 460.095 514 461.143V463.415C512.988 463.567 511.986 463.778 511 464.047C510.741 464.12 510.5 464.243 510.29 464.41C510.081 464.576 509.907 464.782 509.779 465.016C509.651 465.25 509.572 465.507 509.547 465.771C509.521 466.036 509.549 466.303 509.63 466.556L511.48 472.246C511.922 473.611 512.792 474.802 513.964 475.647C515.136 476.491 516.549 476.947 518 476.947C519.451 476.947 520.864 476.491 522.036 475.647C523.208 474.802 524.078 473.611 524.52 472.246L526.37 466.556C526.451 466.303 526.479 466.036 526.453 465.771C526.428 465.507 526.349 465.25 526.221 465.016C526.093 464.782 525.919 464.576 525.71 464.41C525.5 464.243 525.259 464.12 525 464.047ZM517 469.539C517 469.277 517.105 469.026 517.293 468.841C517.48 468.656 517.735 468.552 518 468.552C518.265 468.552 518.52 468.656 518.707 468.841C518.895 469.026 519 469.277 519 469.539C519 469.801 518.895 470.053 518.707 470.238C518.52 470.423 518.265 470.527 518 470.527C517.735 470.527 517.48 470.423 517.293 470.238C517.105 470.053 517 469.801 517 469.539ZM515.5 461.143C515.5 460.488 515.763 459.86 516.232 459.397C516.701 458.934 517.337 458.673 518 458.673C518.663 458.673 519.299 458.934 519.768 459.397C520.237 459.86 520.5 460.488 520.5 461.143V463.227C519.67 463.158 518.83 463.109 518 463.109C517.17 463.109 516.33 463.158 515.5 463.227V461.143Z" fill="white"/>
</g>
<g filter="url(#filter3_d_586_794)">
<rect x="76" y="269.507" width="55.3177" height="56" rx="15" transform="rotate(-90 76 269.507)" fill="#30CA71"/>
</g>
<g clip-path="url(#clip3_586_794)">
<path d="M113 249.197L111.24 249.197C109.895 249.197 108.563 249.459 107.32 249.967C106.494 250.306 105.717 250.751 105.01 251.291L104.74 249.651L104 245.246L102.85 251.182C101.089 249.891 98.9533 249.195 96.76 249.197L95 249.197L104 232.404L113 249.197Z" fill="white"/>
</g>
<g filter="url(#filter4_d_586_794)">
<path fill-rule="evenodd" clip-rule="evenodd" d="M207 20.5766C198.716 20.5766 192 27.2923 192 35.5766V116.212C192 124.496 198.716 131.212 207 131.212H226.894C227.604 132.622 228.553 133.945 229.743 135.12L236.684 141.976C242.578 147.798 252.133 147.798 258.027 141.976L264.968 135.12C266.158 133.945 267.107 132.622 267.817 131.212H289C297.284 131.212 304 124.496 304 116.212V35.5766C304 27.2923 297.284 20.5766 289 20.5766H207Z" fill="white"/>
</g>
<rect x="216" y="44.2842" width="64" height="63.2203" rx="15" fill="#F4F9FE"/>
<g clip-path="url(#clip4_586_794)">
<path d="M245.184 74.9806H239.254C239.121 74.9806 238.994 74.9286 238.9 74.836C238.806 74.7433 238.754 74.6177 238.754 74.4867V68.622C238.754 68.1274 238.953 67.653 239.307 67.3033C239.661 66.9535 240.141 66.757 240.642 66.757H246.572C246.704 66.757 246.832 66.8091 246.925 66.9017C247.019 66.9943 247.072 67.12 247.072 67.251V73.1127C247.072 73.6076 246.873 74.0822 246.519 74.4325C246.165 74.7827 245.685 74.9798 245.184 74.9806Z" fill="#3097F5"/>
<path d="M256.747 74.9806H250.817C250.569 74.9808 250.323 74.9325 250.093 74.8387C249.863 74.7449 249.655 74.6073 249.479 74.4339C249.304 74.2604 249.164 74.0544 249.069 73.8277C248.974 73.601 248.925 73.3581 248.925 73.1127V67.2549C248.925 67.1239 248.978 66.9983 249.071 66.9057C249.165 66.813 249.292 66.761 249.425 66.761H255.362C255.863 66.761 256.343 66.9575 256.697 67.3072C257.051 67.657 257.25 68.1314 257.25 68.626V74.4838C257.25 74.5491 257.238 74.6139 257.213 74.6744C257.187 74.7348 257.15 74.7898 257.104 74.836C257.057 74.8822 257.001 74.9188 256.94 74.9436C256.879 74.9684 256.813 74.981 256.747 74.9806Z" fill="#3097F5"/>
<path d="M246.572 85.0317H240.638C240.137 85.0317 239.657 84.8352 239.303 84.4854C238.949 84.1357 238.75 83.6613 238.75 83.1667V77.306C238.75 77.175 238.803 77.0493 238.897 76.9567C238.99 76.8641 239.118 76.812 239.25 76.812H245.184C245.685 76.812 246.165 77.0083 246.52 77.3578C246.874 77.7072 247.074 78.1813 247.075 78.6761V84.5338C247.076 84.5993 247.063 84.6641 247.038 84.7247C247.013 84.7853 246.976 84.8403 246.929 84.8867C246.882 84.933 246.827 84.9697 246.765 84.9946C246.704 85.0194 246.638 85.0321 246.572 85.0317Z" fill="#3097F5"/>
<path d="M255.75 78.2898V83.1667C255.75 83.2682 255.709 83.3656 255.636 83.4374C255.564 83.5092 255.465 83.5497 255.362 83.5499H250.425V78.6761C250.425 78.5737 250.467 78.4756 250.54 78.4032C250.613 78.3309 250.713 78.2901 250.816 78.2898H255.75ZM256.75 76.8081H250.82C250.319 76.8081 249.838 77.0049 249.483 77.3552C249.128 77.7055 248.929 78.1806 248.929 78.6761V84.5338C248.929 84.6648 248.982 84.7904 249.076 84.8831C249.169 84.9757 249.297 85.0277 249.429 85.0277H255.362C255.863 85.0277 256.343 84.8312 256.697 84.4815C257.051 84.1317 257.25 83.6573 257.25 83.1627V77.305C257.25 77.174 257.198 77.0483 257.104 76.9557C257.01 76.8631 256.883 76.8111 256.75 76.8111V76.8081Z" fill="#3097F5"/>
</g>
<g filter="url(#filter5_d_586_794)">
<rect x="60" y="341.617" width="208" height="153.112" rx="15" fill="white"/>
</g>
<rect x="172" y="435.46" width="72" height="7.90253" rx="3.95126" fill="#F5F5F5"/>
<rect x="172" y="407.801" width="72" height="7.90253" rx="3.95126" fill="#F5F5F5"/>
<rect x="84" y="407.801" width="64" height="63.2203" rx="15" fill="#F4F9FE"/>
<rect x="172" y="463.119" width="72" height="7.90253" rx="3.95126" fill="#F5F5F5"/>
<g clip-path="url(#clip5_586_794)">
<path d="M125.66 437.598C125.474 437.349 125.229 437.149 124.947 437.015C124.664 436.881 124.353 436.816 124.04 436.828H123.95V432.867C123.948 432.343 123.737 431.842 123.362 431.471C122.988 431.101 122.48 430.893 121.95 430.891H108C107.47 430.893 106.962 431.101 106.588 431.471C106.213 431.842 106.002 432.343 106 432.867V446.489C106.007 446.587 106.035 446.682 106.082 446.768C106.128 446.855 106.192 446.931 106.27 446.993C106.437 447.285 106.681 447.528 106.978 447.693C107.274 447.858 107.61 447.941 107.95 447.931H120.5C121.177 447.894 121.829 447.663 122.376 447.266C122.922 446.87 123.341 446.325 123.58 445.698L125.84 439.554C125.944 439.279 125.999 438.988 126 438.695C126.009 438.303 125.89 437.918 125.66 437.598ZM107.5 433.114C107.501 432.918 107.581 432.73 107.721 432.591C107.861 432.453 108.051 432.374 108.25 432.373H121.7C121.899 432.374 122.089 432.453 122.229 432.591C122.369 432.73 122.449 432.918 122.45 433.114V436.828H120.49C120.417 436.836 120.343 436.826 120.274 436.799C120.206 436.771 120.146 436.727 120.1 436.67L118.7 434.467C118.518 434.199 118.271 433.981 117.98 433.834C117.69 433.688 117.366 433.616 117.04 433.627H112.68C112.005 433.666 111.356 433.897 110.811 434.292C110.267 434.688 109.849 435.23 109.61 435.855L107.5 441.56V433.114Z" fill="#3097F5"/>
</g>
<defs>
<filter id="filter0_d_586_794" x="510" y="86.5167" width="176" height="175.318" filterUnits="userSpaceOnUse" color-interpolation-filters="sRGB">
<feFlood flood-opacity="0" result="BackgroundImageFix"/>
<feColorMatrix in="SourceAlpha" type="matrix" values="0 0 0 0 0 0 0 0 0 0 0 0 0 0 0 0 0 0 127 0" result="hardAlpha"/>
<feOffset dy="40"/>
<feGaussianBlur stdDeviation="30"/>
<feColorMatrix type="matrix" values="0 0 0 0 0.14902 0 0 0 0 0.541176 0 0 0 0 0.901961 0 0 0 0.2 0"/>
<feBlend mode="normal" in2="BackgroundImageFix" result="effect1_dropShadow_586_794"/>
<feBlend mode="normal" in="SourceGraphic" in2="effect1_dropShadow_586_794" result="shape"/>
</filter>
<filter id="filter1_d_586_794" x="430" y="224.811" width="364" height="273.112" filterUnits="userSpaceOnUse" color-interpolation-filters="sRGB">
<feFlood flood-opacity="0" result="BackgroundImageFix"/>
<feColorMatrix in="SourceAlpha" type="matrix" values="0 0 0 0 0 0 0 0 0 0 0 0 0 0 0 0 0 0 127 0" result="hardAlpha"/>
<feOffset dy="40"/>
<feGaussianBlur stdDeviation="30"/>
<feColorMatrix type="matrix" values="0 0 0 0 0.14902 0 0 0 0 0.541176 0 0 0 0 0.901961 0 0 0 0.1 0"/>
<feBlend mode="normal" in2="BackgroundImageFix" result="effect1_dropShadow_586_794"/>
<feBlend mode="normal" in="SourceGraphic" in2="effect1_dropShadow_586_794" result="shape"/>
</filter>
<filter id="filter2_d_586_794" x="430" y="419.411" width="176" height="175.318" filterUnits="userSpaceOnUse" color-interpolation-filters="sRGB">
<feFlood flood-opacity="0" result="BackgroundImageFix"/>
<feColorMatrix in="SourceAlpha" type="matrix" values="0 0 0 0 0 0 0 0 0 0 0 0 0 0 0 0 0 0 127 0" result="hardAlpha"/>
<feOffset dy="40"/>
<feGaussianBlur stdDeviation="30"/>
<feColorMatrix type="matrix" values="0 0 0 0 0.945098 0 0 0 0 0.815686 0 0 0 0 0.137255 0 0 0 0.2 0"/>
<feBlend mode="normal" in2="BackgroundImageFix" result="effect1_dropShadow_586_794"/>
<feBlend mode="normal" in="SourceGraphic" in2="effect1_dropShadow_586_794" result="shape"/>
</filter>
<filter id="filter3_d_586_794" x="16" y="194.189" width="176" height="175.318" filterUnits="userSpaceOnUse" color-interpolation-filters="sRGB">
<feFlood flood-opacity="0" result="BackgroundImageFix"/>
<feColorMatrix in="SourceAlpha" type="matrix" values="0 0 0 0 0 0 0 0 0 0 0 0 0 0 0 0 0 0 127 0" result="hardAlpha"/>
<feOffset dy="40"/>
<feGaussianBlur stdDeviation="30"/>
<feColorMatrix type="matrix" values="0 0 0 0 0.152941 0 0 0 0 0.682353 0 0 0 0 0.376471 0 0 0 0.2 0"/>
<feBlend mode="normal" in2="BackgroundImageFix" result="effect1_dropShadow_586_794"/>
<feBlend mode="normal" in="SourceGraphic" in2="effect1_dropShadow_586_794" result="shape"/>
</filter>
<filter id="filter4_d_586_794" x="132" y="0.576599" width="232" height="245.766" filterUnits="userSpaceOnUse" color-interpolation-filters="sRGB">
<feFlood flood-opacity="0" result="BackgroundImageFix"/>
<feColorMatrix in="SourceAlpha" type="matrix" values="0 0 0 0 0 0 0 0 0 0 0 0 0 0 0 0 0 0 127 0" result="hardAlpha"/>
<feOffset dy="40"/>
<feGaussianBlur stdDeviation="30"/>
<feColorMatrix type="matrix" values="0 0 0 0 0.14902 0 0 0 0 0.541176 0 0 0 0 0.901961 0 0 0 0.1 0"/>
<feBlend mode="normal" in2="BackgroundImageFix" result="effect1_dropShadow_586_794"/>
<feBlend mode="normal" in="SourceGraphic" in2="effect1_dropShadow_586_794" result="shape"/>
</filter>
<filter id="filter5_d_586_794" x="0" y="321.617" width="328" height="273.112" filterUnits="userSpaceOnUse" color-interpolation-filters="sRGB">
<feFlood flood-opacity="0" result="BackgroundImageFix"/>
<feColorMatrix in="SourceAlpha" type="matrix" values="0 0 0 0 0 0 0 0 0 0 0 0 0 0 0 0 0 0 127 0" result="hardAlpha"/>
<feOffset dy="40"/>
<feGaussianBlur stdDeviation="30"/>
<feColorMatrix type="matrix" values="0 0 0 0 0.14902 0 0 0 0 0.541176 0 0 0 0 0.901961 0 0 0 0.1 0"/>
<feBlend mode="normal" in2="BackgroundImageFix" result="effect1_dropShadow_586_794"/>
<feBlend mode="normal" in="SourceGraphic" in2="effect1_dropShadow_586_794" result="shape"/>
</filter>
<clipPath id="clip0_586_794">
<rect width="24" height="23.7076" fill="white" transform="translate(586 122.322)"/>
</clipPath>
<clipPath id="clip1_586_794">
<rect width="24" height="23.7076" fill="white" transform="translate(534 328.776)"/>
</clipPath>
<clipPath id="clip2_586_794">
<rect width="24" height="23.7076" fill="white" transform="translate(506 455.216)"/>
</clipPath>
<clipPath id="clip3_586_794">
<rect width="23.7076" height="24" fill="white" transform="translate(92 253.701) rotate(-90)"/>
</clipPath>
<clipPath id="clip4_586_794">
<rect width="24" height="23.7076" fill="white" transform="translate(236 64.0406)"/>
</clipPath>
<clipPath id="clip5_586_794">
<rect width="24" height="23.7076" fill="white" transform="translate(104 427.557)"/>
</clipPath>
</defs>
</svg>
