<svg width="794" height="575" viewBox="0 0 794 575" fill="none" xmlns="http://www.w3.org/2000/svg">
<path d="M111 133.127C111 124.843 117.716 118.127 126 118.127H696C704.284 118.127 711 124.843 711 133.127V513.254H111V133.127Z" fill="white"/>
<rect x="135" y="186.286" width="387" height="114.587" rx="15" fill="#F5F5F5"/>
<rect x="135" y="324.581" width="387" height="15.8051" rx="7.90254" fill="#F5F5F5"/>
<rect x="135" y="387.801" width="387" height="15.8051" rx="7.90253" fill="#F5F5F5"/>
<rect x="135" y="356.191" width="387" height="15.8051" rx="7.90254" fill="#F5F5F5"/>
<rect x="538" y="186.286" width="149" height="114.587" rx="15" fill="#F5F5F5"/>
<rect x="135" y="141.834" width="62" height="14.8172" rx="5" fill="#F5F5F5"/>
<rect x="221" y="141.834" width="62" height="14.8172" rx="5" fill="#F5F5F5"/>
<rect x="307" y="141.834" width="62" height="14.8172" rx="5" fill="#F5F5F5"/>
<rect x="393" y="141.834" width="62" height="14.8172" rx="5" fill="#F5F5F5"/>
<ellipse cx="674" cy="150.725" rx="13" ry="12.8416" fill="#F5F5F5"/>
<g filter="url(#filter0_d_586_794)">
<rect x="490" y="224.811" width="244" height="153.112" rx="15" fill="white"/>
</g>
<rect x="602" y="354.215" width="63.2203" height="15" rx="5" transform="rotate(-90 602 354.215)" fill="#F5F5F5"/>
<rect x="633" y="354.215" width="39.5127" height="15" rx="5" transform="rotate(-90 633 354.215)" fill="#F5F5F5"/>
<rect x="664" y="354.215" width="48.403" height="15" rx="5" transform="rotate(-90 664 354.215)" fill="#F5F5F5"/>
<rect x="695" y="354.215" width="24.6954" height="15" rx="5" transform="rotate(-90 695 354.215)" fill="#F5F5F5"/>
<rect x="514" y="290.995" width="64" height="63.2203" rx="15" fill="#F4F9FE"/>
<g clip-path="url(#clip0_586_794)">
<path d="M552.25 327.544V312.974C552.249 312.778 552.169 312.59 552.029 312.451C551.889 312.313 551.699 312.234 551.5 312.233H548C547.801 312.234 547.611 312.313 547.471 312.451C547.331 312.59 547.251 312.778 547.25 312.974V327.544H544.75V320.876C544.749 320.68 544.669 320.492 544.529 320.354C544.389 320.215 544.199 320.137 544 320.135H540.5C540.301 320.137 540.111 320.215 539.971 320.354C539.831 320.492 539.751 320.68 539.75 320.876V327.544H536V329.026H556V327.544H552.25Z" fill="#3097F5"/>
</g>
<g filter="url(#filter1_d_586_794)">
<rect x="60" y="321.617" width="208" height="153.112" rx="15" fill="white"/>
</g>
<rect x="172" y="415.46" width="72" height="7.90253" rx="3.95126" fill="#F5F5F5"/>
<rect x="172" y="387.801" width="72" height="7.90253" rx="3.95126" fill="#F5F5F5"/>
<rect x="84" y="387.801" width="64" height="63.2203" rx="15" fill="#F4F9FE"/>
<rect x="172" y="443.119" width="72" height="7.90253" rx="3.95126" fill="#F5F5F5"/>
<g clip-path="url(#clip1_586_794)">
<path d="M125.66 417.598C125.474 417.349 125.229 417.149 124.947 417.015C124.664 416.881 124.353 416.816 124.04 416.828H123.95V412.867C123.948 412.343 123.737 411.842 123.362 411.471C122.988 411.101 122.48 410.893 121.95 410.891H108C107.47 410.893 106.962 411.101 106.588 411.471C106.213 411.842 106.002 412.343 106 412.867V426.489C106.007 426.587 106.035 426.682 106.082 426.768C106.128 426.855 106.192 426.931 106.27 426.993C106.437 427.285 106.681 427.528 106.978 427.693C107.274 427.858 107.61 427.941 107.95 427.931H120.5C121.177 427.894 121.829 427.663 122.376 427.266C122.922 426.87 123.341 426.325 123.58 425.698L125.84 419.554C125.944 419.279 125.999 418.988 126 418.695C126.009 418.303 125.89 417.918 125.66 417.598ZM107.5 413.114C107.501 412.918 107.581 412.73 107.721 412.591C107.861 412.453 108.051 412.374 108.25 412.373H121.7C121.899 412.374 122.089 412.453 122.229 412.591C122.369 412.73 122.449 412.918 122.45 413.114V416.828H120.49C120.417 416.836 120.343 416.826 120.274 416.799C120.206 416.771 120.146 416.727 120.1 416.67L118.7 414.467C118.518 414.199 118.271 413.981 117.98 413.834C117.69 413.688 117.366 413.616 117.04 413.627H112.68C112.005 413.666 111.356 413.897 110.811 414.292C110.267 414.688 109.849 415.23 109.61 415.855L107.5 421.56V413.114Z" fill="#3097F5"/>
</g>
<path d="M108.373 191.237C107.054 190.439 105.542 190.016 104 190.016C102.458 190.016 100.946 190.439 99.6275 191.237L79.94 203.17C78.6994 203.922 77.6735 204.981 76.9614 206.244C76.2494 207.508 75.8752 208.934 75.875 210.385V229.615C75.8752 231.066 76.2494 232.492 76.9614 233.756C77.6735 235.019 78.6994 236.078 79.94 236.83L99.6275 248.763C100.946 249.561 102.458 249.984 104 249.984C105.542 249.984 107.054 249.561 108.373 248.763L128.06 236.83C129.301 236.078 130.327 235.019 131.039 233.756C131.751 232.492 132.125 231.066 132.125 229.615V210.385C132.125 208.934 131.751 207.508 131.039 206.244C130.327 204.981 129.301 203.922 128.06 203.17L108.373 191.237Z" fill="#A96800"/>
<path fill-rule="evenodd" clip-rule="evenodd" d="M116.5 207.5V232.5H91.5V207.5H116.5ZM102.022 213.75H99.5877L94.9652 226.25H97.1618L98.0345 223.806H103.568L104.422 226.25H106.751L102.022 213.75ZM110.65 213.75H108.462V226.25H110.65V213.75ZM100.787 215.847L102.966 222.083H98.6421L100.787 215.847ZM118.583 226.25H122.75V230.417H118.583V226.25ZM93.5833 234.583H97.75V238.75H93.5833V234.583ZM101.917 234.583H106.083V238.75H101.917V234.583ZM93.5833 201.25H97.75V205.417H93.5833V201.25ZM110.25 234.583H114.417V238.75H110.25V234.583ZM101.917 201.25H106.083V205.417H101.917V201.25ZM110.25 201.25H114.417V205.417H110.25V201.25ZM118.583 217.917H122.75V222.083H118.583V217.917ZM85.25 226.25H89.4167V230.417H85.25V226.25ZM118.583 209.583H122.75V213.75H118.583V209.583ZM85.25 217.917H89.4167V222.083H85.25V217.917ZM85.25 209.583H89.4167V213.75H85.25V209.583Z" fill="black"/>
<g clip-path="url(#clip2_586_794)">
<path d="M279 24H219V84H279V24Z" fill="#77BB41"/>
<path d="M256.63 39.0625C256.176 38.2489 255.115 38.0107 254.357 38.5523L253.554 39.1256C252.852 39.6272 251.876 39.4646 251.375 38.7624C250.873 38.0601 251.036 37.0843 251.738 36.5827L252.541 36.0094C254.815 34.3847 257.997 35.099 259.359 37.54L260.752 40.0382L265.083 35.7076C265.693 35.0974 266.682 35.0974 267.293 35.7076C267.903 36.3178 267.903 37.3071 267.293 37.9174L262.335 42.875L264.178 46.1796C264.651 47.0271 265.774 47.2431 266.528 46.6317L267.287 46.0159C267.957 45.4721 268.941 45.5745 269.484 46.2446C270.028 46.9147 269.926 47.8988 269.256 48.4425L268.497 49.0583C266.236 50.8927 262.868 50.2444 261.45 47.7021L260.038 45.172L255.834 49.3757C255.224 49.9858 254.235 49.9858 253.625 49.3757C253.014 48.7655 253.014 47.7762 253.625 47.166L258.455 42.3351L256.63 39.0625Z" fill="#212121"/>
<path d="M241.392 57.9421C238.367 58.5325 234.948 58.6633 231.65 58.6842C230.935 61.2865 231.154 63.1813 231.789 64.4908C232.499 65.9554 233.857 66.9571 235.689 67.414C239.436 68.3488 244.787 66.8663 248.346 62.8063C248.914 62.1573 249.902 62.0923 250.551 62.661C251.199 63.23 251.264 64.2171 250.696 64.866C246.442 69.72 239.923 71.691 234.933 70.446C232.397 69.8133 230.17 68.3169 228.977 65.8538C227.79 63.4052 227.755 60.2735 229.023 56.6135C230.739 51.6621 233.339 48.5883 235.935 46.6843C238.517 44.7916 241.012 44.1154 242.436 43.8235C245.676 43.1598 248.492 44.0839 250.042 46.118C251.612 48.1793 251.584 51.0069 249.844 53.384C247.919 56.0131 244.744 57.2877 241.392 57.9421ZM243.063 46.8849C241.884 47.1266 239.868 47.6753 237.783 49.2044C236.068 50.4621 234.248 52.4248 232.813 55.546C235.65 55.5006 238.391 55.344 240.794 54.875C243.872 54.2742 246.093 53.2167 247.322 51.5379C248.341 50.1473 248.193 48.8485 247.556 48.0118C246.898 47.148 245.418 46.4025 243.063 46.8849Z" fill="#212121"/>
</g>
<g clip-path="url(#clip3_586_794)">
<path d="M628 112C628 95.4314 614.569 82 598 82C581.431 82 568 95.4314 568 112C568 128.569 581.431 142 598 142C614.569 142 628 128.569 628 112Z" fill="#FFE4A8"/>
<path d="M612.858 87.8431C612.864 87.5357 612.697 87.2518 612.432 87.1043C612.16 86.9569 611.831 86.9725 611.577 87.1435C609.959 88.2337 607.013 90.3341 603.846 93.1435L604.373 99.7788L601.266 95.5608C598.298 98.4988 595.399 101.981 593.456 105.763L593.832 110.494L592.284 108.395C590.734 112.535 590.483 116.954 592.579 121.366L591.056 124.144L591.029 124.174H588.613C587.76 124.174 587.089 124.9 587.089 125.754V128.009H587.481L583.857 134.322C583.448 134.322 583.142 134.649 583.142 135.059V136.323C583.142 136.715 583.41 136.998 583.802 136.998H598.276C598.668 136.998 599.032 136.715 599.032 136.323V135.032C599.032 134.64 598.69 134.326 598.3 134.326L594.447 128.013H594.976V125.757C594.976 124.904 594.32 124.177 593.467 124.177H593.442V124.165L594.408 122.356C596.871 122.036 598.996 121.206 600.846 119.998L597.804 119.023L603.812 117.523C605.889 115.357 607.489 112.649 608.725 109.741L604.959 109.506L609.802 106.902C612.347 99.3302 612.791 91.1655 612.858 87.8431ZM589.798 129.297L587.366 133.867C587.208 134.165 586.904 134.334 586.588 134.334C586.449 134.334 586.306 134.301 586.174 134.235C585.746 134.006 585.583 133.473 585.81 133.038L588.242 128.467C588.471 128.042 589.004 127.876 589.434 128.108C589.864 128.337 590.027 128.867 589.798 129.297ZM589.321 127.133C588.821 127.133 588.414 126.728 588.414 126.227C588.414 125.725 588.821 125.321 589.321 125.321C589.823 125.321 590.229 125.725 590.229 126.227C590.229 126.728 589.823 127.133 589.321 127.133Z" fill="black"/>
</g>
<path d="M518 471.064C521.006 470.204 524.289 471.237 527.217 470.139C530.257 469 532.763 466.887 535.115 464.649C537.689 462.199 541.154 459.917 541.655 456.399C542.161 452.837 538.586 449.99 537.696 446.505C536.833 443.126 538.087 439.35 536.505 436.242C534.854 432.996 531.63 430.953 528.689 428.804C525.337 426.353 522.09 423.434 518 422.716C513.738 421.969 509.161 422.681 505.338 424.708C501.552 426.716 499.17 430.511 496.698 434.012C494.322 437.378 492.06 440.854 491.109 444.862C490.153 448.886 489.9 453.192 491.213 457.114C492.492 460.931 495.957 463.431 498.401 466.63C500.893 469.893 501.831 475.352 505.836 476.259C510.191 477.244 513.707 472.293 518 471.064Z" fill="#FFB5AF"/>
<path d="M518 469.917C517.635 469.919 517.276 469.826 516.959 469.646L502.375 461.312C502.032 461.116 501.751 460.825 501.566 460.475C501.382 460.124 501.301 459.728 501.334 459.333V442.667C501.332 442.3 501.428 441.939 501.611 441.62C501.794 441.302 502.057 441.038 502.375 440.854L516.959 432.521C517.275 432.338 517.635 432.242 518 432.242C518.366 432.242 518.725 432.338 519.042 432.521L533.625 440.854C533.943 441.038 534.207 441.302 534.39 441.62C534.573 441.939 534.668 442.3 534.667 442.667V459.333C534.668 459.7 534.573 460.061 534.39 460.38C534.207 460.698 533.943 460.962 533.625 461.146L519.042 469.479C518.742 469.718 518.381 469.87 518 469.917ZM505.5 458.208L518 465.437L530.5 458.208V443.792L518 436.562L505.5 443.792V458.208Z" fill="#333333"/>
<path d="M524.25 456.687C523.698 456.687 523.168 456.468 522.777 456.077C522.386 455.687 522.167 455.157 522.167 454.604V447.396C522.167 446.843 522.386 446.313 522.777 445.923C523.168 445.532 523.698 445.312 524.25 445.312C524.803 445.312 525.333 445.532 525.723 445.923C526.114 446.313 526.334 446.843 526.334 447.396V454.604C526.334 455.157 526.114 455.687 525.723 456.077C525.333 456.468 524.803 456.687 524.25 456.687Z" fill="#333333"/>
<path d="M518 460.292C517.635 460.294 517.276 460.201 516.959 460.021L510.709 456.417C510.47 456.281 510.261 456.099 510.092 455.881C509.924 455.664 509.801 455.415 509.729 455.15C509.658 454.885 509.639 454.608 509.675 454.335C509.711 454.063 509.8 453.8 509.938 453.562C510.076 453.326 510.259 453.118 510.477 452.952C510.695 452.786 510.944 452.665 511.209 452.595C511.474 452.525 511.751 452.509 512.022 452.546C512.294 452.583 512.556 452.674 512.792 452.812L519.042 456.417C519.289 456.553 519.506 456.737 519.68 456.96C519.854 457.182 519.98 457.437 520.052 457.71C520.124 457.983 520.14 458.267 520.099 458.546C520.058 458.825 519.961 459.093 519.813 459.333C519.619 459.636 519.35 459.883 519.033 460.051C518.715 460.219 518.359 460.302 518 460.292Z" fill="#333333"/>
<path d="M511.75 449.479C511.289 449.482 510.84 449.332 510.473 449.053C510.106 448.773 509.842 448.38 509.723 447.934C509.604 447.488 509.636 447.016 509.814 446.59C509.993 446.165 510.307 445.811 510.709 445.583L516.959 441.979C517.196 441.828 517.461 441.727 517.738 441.682C518.015 441.636 518.299 441.647 518.572 441.714C518.845 441.781 519.101 441.902 519.326 442.071C519.551 442.239 519.739 442.451 519.88 442.695C520.021 442.938 520.11 443.207 520.144 443.486C520.178 443.765 520.155 444.048 520.077 444.318C519.999 444.588 519.867 444.839 519.689 445.056C519.511 445.274 519.291 445.453 519.042 445.583L512.792 449.188C512.479 449.382 512.118 449.483 511.75 449.479Z" fill="#333333"/>
<path d="M536.75 463.917C536.383 463.913 536.024 463.812 535.708 463.625L531.542 461.229C531.211 461.039 530.939 460.761 530.756 460.427C530.572 460.093 530.483 459.714 530.5 459.333V442.667C530.499 442.3 530.594 441.939 530.777 441.62C530.96 441.302 531.224 441.038 531.542 440.854L535.708 438.458C535.945 438.32 536.206 438.229 536.478 438.192C536.75 438.155 537.026 438.171 537.291 438.241C537.556 438.311 537.805 438.432 538.023 438.598C538.241 438.764 538.425 438.971 538.563 439.208C538.7 439.446 538.79 439.709 538.825 439.981C538.861 440.254 538.843 440.531 538.771 440.796C538.699 441.061 538.576 441.31 538.408 441.527C538.24 441.744 538.03 441.926 537.792 442.063L534.667 443.792V458.208L537.792 460.021C538.193 460.248 538.508 460.602 538.686 461.028C538.864 461.453 538.896 461.926 538.777 462.372C538.658 462.817 538.394 463.211 538.027 463.49C537.661 463.77 537.211 463.92 536.75 463.917Z" fill="#333333"/>
<path d="M499.25 463.917C498.789 463.92 498.34 463.77 497.973 463.49C497.606 463.211 497.342 462.817 497.223 462.372C497.104 461.926 497.136 461.453 497.314 461.028C497.493 460.602 497.807 460.248 498.209 460.021L501.334 458.208V443.792L498.209 441.979C497.97 441.843 497.76 441.661 497.592 441.444C497.424 441.226 497.301 440.978 497.229 440.712C497.158 440.447 497.139 440.17 497.175 439.898C497.211 439.625 497.3 439.363 497.438 439.125C497.576 438.888 497.759 438.681 497.977 438.515C498.195 438.349 498.444 438.227 498.709 438.158C498.974 438.088 499.251 438.071 499.522 438.109C499.794 438.146 500.055 438.236 500.292 438.375L504.459 440.771C504.789 440.961 505.061 441.239 505.245 441.573C505.428 441.907 505.517 442.286 505.5 442.667V459.333C505.502 459.7 505.406 460.061 505.223 460.38C505.04 460.698 504.777 460.962 504.459 461.146L500.292 463.542C499.985 463.758 499.625 463.888 499.25 463.917Z" fill="#333333"/>
<defs>
<filter id="filter0_d_586_794" x="430" y="204.811" width="364" height="273.112" filterUnits="userSpaceOnUse" color-interpolation-filters="sRGB">
<feFlood flood-opacity="0" result="BackgroundImageFix"/>
<feColorMatrix in="SourceAlpha" type="matrix" values="0 0 0 0 0 0 0 0 0 0 0 0 0 0 0 0 0 0 127 0" result="hardAlpha"/>
<feOffset dy="40"/>
<feGaussianBlur stdDeviation="30"/>
<feColorMatrix type="matrix" values="0 0 0 0 0.14902 0 0 0 0 0.541176 0 0 0 0 0.901961 0 0 0 0.1 0"/>
<feBlend mode="normal" in2="BackgroundImageFix" result="effect1_dropShadow_586_794"/>
<feBlend mode="normal" in="SourceGraphic" in2="effect1_dropShadow_586_794" result="shape"/>
</filter>
<filter id="filter1_d_586_794" x="0" y="301.617" width="328" height="273.112" filterUnits="userSpaceOnUse" color-interpolation-filters="sRGB">
<feFlood flood-opacity="0" result="BackgroundImageFix"/>
<feColorMatrix in="SourceAlpha" type="matrix" values="0 0 0 0 0 0 0 0 0 0 0 0 0 0 0 0 0 0 127 0" result="hardAlpha"/>
<feOffset dy="40"/>
<feGaussianBlur stdDeviation="30"/>
<feColorMatrix type="matrix" values="0 0 0 0 0.14902 0 0 0 0 0.541176 0 0 0 0 0.901961 0 0 0 0.1 0"/>
<feBlend mode="normal" in2="BackgroundImageFix" result="effect1_dropShadow_586_794"/>
<feBlend mode="normal" in="SourceGraphic" in2="effect1_dropShadow_586_794" result="shape"/>
</filter>
<clipPath id="clip0_586_794">
<rect width="24" height="23.7076" fill="white" transform="translate(534 308.776)"/>
</clipPath>
<clipPath id="clip1_586_794">
<rect width="24" height="23.7076" fill="white" transform="translate(104 407.557)"/>
</clipPath>
<clipPath id="clip2_586_794">
<rect width="60" height="60" fill="white" transform="translate(219 24)"/>
</clipPath>
<clipPath id="clip3_586_794">
<rect width="60" height="60" fill="white" transform="translate(568 82)"/>
</clipPath>
</defs>
</svg>
