<svg width="790" height="545" viewBox="0 0 790 545" fill="none" xmlns="http://www.w3.org/2000/svg">
<g filter="url(#filter0_d_586_793)">
<rect x="60" y="40.0251" width="644.231" height="424.255" rx="15" fill="white"/>
</g>
<g filter="url(#filter1_d_586_793)">
<rect x="85.769" y="113.209" width="236.218" height="123.034" rx="15" fill="white"/>
</g>
<g filter="url(#filter2_d_586_793)">
<rect x="342.388" y="113.209" width="158.91" height="123.034" rx="15" fill="white"/>
</g>
<rect x="85.769" y="280.79" width="415.529" height="16.9702" rx="5" fill="#F5F5F5"/>
<rect x="85.769" y="348.671" width="415.529" height="16.9702" rx="5" fill="#F5F5F5"/>
<rect x="85.769" y="314.73" width="415.529" height="16.9702" rx="5" fill="#F5F5F5"/>
<g filter="url(#filter3_d_586_793)">
<rect x="518.478" y="113.209" width="211.522" height="263.038" rx="15" fill="white"/>
</g>
<rect x="85.769" y="65.4804" width="66.5705" height="15.9096" rx="5" fill="#F5F5F5"/>
<rect x="178.109" y="65.4804" width="66.5705" height="15.9096" rx="5" fill="#F5F5F5"/>
<rect x="270.449" y="65.4804" width="66.5705" height="15.9096" rx="5" fill="#F5F5F5"/>
<rect x="362.789" y="65.4804" width="66.5705" height="15.9096" rx="5" fill="#F5F5F5"/>
<rect x="539.952" y="134.422" width="66.5705" height="15.9096" rx="5" fill="#F5F5F5"/>
<ellipse cx="664.503" cy="75.0262" rx="13.9583" ry="13.7883" fill="#F5F5F5"/>
<path d="M687.051 253.743C687.051 288.011 658.929 315.791 624.239 315.791C589.548 315.791 561.426 288.011 561.426 253.743C561.426 219.476 589.548 191.696 624.239 191.696C658.929 191.696 687.051 219.476 687.051 253.743ZM592.833 253.743C592.833 270.877 606.894 284.767 624.239 284.767C641.584 284.767 655.645 270.877 655.645 253.743C655.645 236.61 641.584 222.72 624.239 222.72C606.894 222.72 592.833 236.61 592.833 253.743Z" fill="#3097F5"/>
<path d="M687.051 253.743C687.051 264.247 684.352 274.578 679.206 283.77C674.061 292.962 666.637 300.712 657.631 306.296C648.625 311.88 638.332 315.114 627.715 315.696C617.099 316.277 606.506 314.186 596.931 309.62C587.355 305.054 579.11 298.161 572.968 289.587C566.825 281.014 562.986 271.04 561.811 260.601C560.636 250.162 562.163 239.599 566.248 229.902C570.334 220.205 576.845 211.691 585.171 205.158L604.705 229.451C600.542 232.717 597.286 236.974 595.244 241.823C593.201 246.671 592.437 251.953 593.025 257.172C593.613 262.392 595.532 267.379 598.603 271.665C601.674 275.952 605.797 279.399 610.585 281.682C615.373 283.965 620.669 285.01 625.977 284.72C631.285 284.429 636.432 282.812 640.935 280.02C645.438 277.228 649.15 273.353 651.723 268.757C654.295 264.161 655.645 258.995 655.645 253.743H687.051Z" fill="#30CA71"/>
<path d="M687.051 253.743C687.051 264.808 684.056 275.672 678.376 285.208C672.695 294.745 664.537 302.607 654.745 307.981C644.954 313.355 633.886 316.045 622.688 315.772C611.49 315.499 600.57 312.273 591.059 306.428L607.649 280.086C612.404 283.008 617.865 284.621 623.463 284.758C629.062 284.894 634.596 283.549 639.492 280.862C644.388 278.175 648.467 274.244 651.307 269.476C654.147 264.708 655.645 259.276 655.645 253.743H687.051Z" fill="#F1D023"/>
<path d="M111.539 214.02C118.339 206.772 135.912 193.656 151.803 199.171C171.667 206.065 186.162 177.958 221.595 182.731C257.027 187.504 251.122 150.912 303.734 152.503" stroke="#3097F5" stroke-width="2" stroke-linecap="round"/>
<path d="M151.803 199.651C135.912 194.136 118.339 207.252 111.539 214.5H303.734V152.983C251.122 151.392 257.027 187.984 221.595 183.211C186.162 178.438 171.667 206.545 151.803 199.651Z" fill="url(#paint0_linear_586_793)"/>
<rect x="362.789" y="166.241" width="8.58975" height="54.0925" rx="4.29488" fill="#F1F1F1"/>
<rect x="384.263" y="141.846" width="8.58975" height="78.4871" rx="4.29488" fill="#F1F1F1"/>
<rect x="405.737" y="156.695" width="8.58975" height="63.6382" rx="4.29488" fill="#3097F5"/>
<rect x="427.211" y="183.211" width="8.58975" height="37.1223" rx="4.29488" fill="#F1F1F1"/>
<rect x="448.686" y="200.181" width="8.58975" height="20.1521" rx="4.29488" fill="#F1F1F1"/>
<rect x="470.16" y="200.181" width="8.58975" height="20.1521" rx="4.29488" fill="#F1F1F1"/>
<path d="M234.479 187.393C237.095 187.393 239.237 185.295 239.237 182.681C239.237 180.067 237.095 177.969 234.479 177.969C231.863 177.969 229.721 180.067 229.721 182.681C229.721 185.295 231.863 187.393 234.479 187.393Z" fill="white" stroke="#3097F5" stroke-width="2"/>
<path fill-rule="evenodd" clip-rule="evenodd" d="M205.657 126.997C202.896 126.997 200.657 129.236 200.657 131.997V144.271C200.657 147.032 202.896 149.271 205.657 149.271H224.234C224.33 149.469 224.462 149.655 224.628 149.82L231.652 156.758C232.438 157.535 233.712 157.535 234.498 156.758L241.522 149.82C241.689 149.655 241.82 149.469 241.916 149.271H262.228C264.989 149.271 267.228 147.032 267.228 144.271V131.997C267.228 129.236 264.989 126.997 262.228 126.997H205.657Z" fill="#F5F5F5"/>
<defs>
<filter id="filter0_d_586_793" x="0" y="0.0251465" width="764.231" height="544.255" filterUnits="userSpaceOnUse" color-interpolation-filters="sRGB">
<feFlood flood-opacity="0" result="BackgroundImageFix"/>
<feColorMatrix in="SourceAlpha" type="matrix" values="0 0 0 0 0 0 0 0 0 0 0 0 0 0 0 0 0 0 127 0" result="hardAlpha"/>
<feOffset dy="20"/>
<feGaussianBlur stdDeviation="30"/>
<feColorMatrix type="matrix" values="0 0 0 0 0 0 0 0 0 0 0 0 0 0 0 0 0 0 0.05 0"/>
<feBlend mode="normal" in2="BackgroundImageFix" result="effect1_dropShadow_586_793"/>
<feBlend mode="normal" in="SourceGraphic" in2="effect1_dropShadow_586_793" result="shape"/>
</filter>
<filter id="filter1_d_586_793" x="25.769" y="73.2091" width="356.218" height="243.034" filterUnits="userSpaceOnUse" color-interpolation-filters="sRGB">
<feFlood flood-opacity="0" result="BackgroundImageFix"/>
<feColorMatrix in="SourceAlpha" type="matrix" values="0 0 0 0 0 0 0 0 0 0 0 0 0 0 0 0 0 0 127 0" result="hardAlpha"/>
<feOffset dy="20"/>
<feGaussianBlur stdDeviation="30"/>
<feColorMatrix type="matrix" values="0 0 0 0 0 0 0 0 0 0 0 0 0 0 0 0 0 0 0.05 0"/>
<feBlend mode="normal" in2="BackgroundImageFix" result="effect1_dropShadow_586_793"/>
<feBlend mode="normal" in="SourceGraphic" in2="effect1_dropShadow_586_793" result="shape"/>
</filter>
<filter id="filter2_d_586_793" x="282.388" y="73.2091" width="278.91" height="243.034" filterUnits="userSpaceOnUse" color-interpolation-filters="sRGB">
<feFlood flood-opacity="0" result="BackgroundImageFix"/>
<feColorMatrix in="SourceAlpha" type="matrix" values="0 0 0 0 0 0 0 0 0 0 0 0 0 0 0 0 0 0 127 0" result="hardAlpha"/>
<feOffset dy="20"/>
<feGaussianBlur stdDeviation="30"/>
<feColorMatrix type="matrix" values="0 0 0 0 0 0 0 0 0 0 0 0 0 0 0 0 0 0 0.05 0"/>
<feBlend mode="normal" in2="BackgroundImageFix" result="effect1_dropShadow_586_793"/>
<feBlend mode="normal" in="SourceGraphic" in2="effect1_dropShadow_586_793" result="shape"/>
</filter>
<filter id="filter3_d_586_793" x="458.478" y="73.2091" width="331.522" height="383.038" filterUnits="userSpaceOnUse" color-interpolation-filters="sRGB">
<feFlood flood-opacity="0" result="BackgroundImageFix"/>
<feColorMatrix in="SourceAlpha" type="matrix" values="0 0 0 0 0 0 0 0 0 0 0 0 0 0 0 0 0 0 127 0" result="hardAlpha"/>
<feOffset dy="20"/>
<feGaussianBlur stdDeviation="30"/>
<feColorMatrix type="matrix" values="0 0 0 0 0 0 0 0 0 0 0 0 0 0 0 0 0 0 0.05 0"/>
<feBlend mode="normal" in2="BackgroundImageFix" result="effect1_dropShadow_586_793"/>
<feBlend mode="normal" in="SourceGraphic" in2="effect1_dropShadow_586_793" result="shape"/>
</filter>
<linearGradient id="paint0_linear_586_793" x1="207.636" y1="152.932" x2="207.636" y2="214.5" gradientUnits="userSpaceOnUse">
<stop stop-color="#3097F5" stop-opacity="0.2"/>
<stop offset="1" stop-color="#3097F5" stop-opacity="0"/>
</linearGradient>
</defs>
</svg>
