<svg width="56" height="48" viewBox="0 0 56 48" fill="none" xmlns="http://www.w3.org/2000/svg">
<g clip-path="url(#clip0_593_817)">
<path d="M23.0899 22.33C22.5376 22.4266 22.1682 22.9527 22.2649 23.505C22.3615 24.0572 22.8876 24.4266 23.4399 24.33H23.4399C26.4371 23.7805 29.522 23.9519 32.4399 24.83C32.5301 24.861 32.6245 24.8779 32.7199 24.88C33.2722 24.96 33.7848 24.5772 33.8649 24.025C33.945 23.4727 33.5622 22.96 33.0099 22.88C29.794 21.9104 26.3932 21.7219 23.0899 22.33H23.0899Z" fill="#ADD8FF"/>
<path d="M52.6302 27.24C50.3702 23.17 46.4902 22.82 43.0202 22.82C41.5634 20.8303 39.6722 19.199 37.4902 18.05C37.0042 17.7739 36.3864 17.944 36.1102 18.43C35.8341 18.916 36.0042 19.5339 36.4902 19.81C40.6602 22.09 43.0002 25.47 43.0002 29.08C43.0002 31.92 41.4902 34.67 38.7402 36.84C38.4526 37.0653 38.3107 37.4295 38.3702 37.79H38.3702C38.8023 40.3349 38.7684 42.9372 38.2702 45.47H35.1702C34.9002 44.1099 34.7629 42.7267 34.7602 41.34C34.7602 41.11 34.7602 40.88 34.7602 40.66C34.7732 40.3313 34.6236 40.0172 34.3602 39.82C34.097 39.6214 33.7529 39.5653 33.4402 39.67C30.962 40.5014 28.3641 40.9203 25.7502 40.91H25.7502C23.4685 40.9274 21.1959 40.621 19.0002 40C18.4702 39.8449 17.9147 40.1489 17.7596 40.679C17.7292 40.7831 17.7159 40.8916 17.7202 41V41.0001C17.754 42.5197 17.6232 44.0385 17.3302 45.53H14.1502V45.53C13.8796 44.1531 13.7423 42.7533 13.7402 41.35V41.35C13.7372 40.3794 13.8074 39.41 13.9502 38.45C14.0168 38.061 13.8483 37.6693 13.5202 37.45L13.0702 37.13V37.13C12.0073 36.3503 10.8682 35.6802 9.67023 35.13L9.67023 35.13C5.95129 33.363 3.21818 30.0246 2.22023 26.03H2.22023C6.00258 25.8297 9.58243 24.2584 12.2902 21.61C12.678 21.22 12.678 20.59 12.2902 20.2H12.2902C11.1929 19.067 10.3027 17.7504 9.66023 16.31H9.66023C11.1102 17.1177 12.68 17.6883 14.3102 18C15.2499 18.1762 16.2041 18.2632 17.1602 18.26C17.7125 18.26 18.1602 17.8123 18.1602 17.26C18.1602 16.7077 17.7125 16.26 17.1602 16.26H17.1602C16.3238 16.2537 15.4899 16.1666 14.6702 16H14.6702C12.3937 15.5903 10.2596 14.6058 8.47023 13.14C8.04427 12.7885 7.41399 12.8488 7.06245 13.2748C6.86357 13.5158 6.78876 13.8358 6.86023 14.14V14.14C7.4005 16.6269 8.54022 18.9441 10.1802 20.89C7.7062 22.9882 4.56412 24.1336 1.32023 24.12H1.10022C0.551022 24.0617 0.0585392 24.4596 0.000219172 25.0088C-0.00723448 25.079 -0.00723452 25.1498 0.000219062 25.22H0.000219137C0.806872 30.3625 4.10533 34.7729 8.81022 37C9.88626 37.4856 10.9141 38.0715 11.8802 38.75L11.8802 38.75C11.7784 39.6062 11.7283 40.4678 11.7302 41.33V41.3292C11.7311 43.1507 11.9424 44.9661 12.36 46.7392C12.4688 47.2004 12.8864 47.5219 13.36 47.5092H18.11C18.5837 47.5219 19.0012 47.2004 19.11 46.7392C19.4575 45.2693 19.6585 43.7687 19.71 42.2592C21.7065 42.724 23.7502 42.9555 25.8 42.9492C28.1649 42.9601 30.5201 42.6472 32.8 42.0192C32.8482 43.6093 33.0559 45.1906 33.42 46.7392C33.5288 47.2004 33.9464 47.5219 34.42 47.5092H39.17C39.6437 47.5219 40.0612 47.2004 40.17 46.7392C40.8224 43.8716 40.9276 40.9066 40.4802 38C43.2685 35.832 44.9412 32.5306 45.0402 29V29.0008C45.0395 27.5391 44.7295 26.0941 44.1305 24.7607C46.3705 24.8407 48.1305 25.2307 49.4505 26.3607C49.0041 26.4882 48.5933 26.7175 48.2505 27.0307V27.0307C46.9681 28.1981 46.8748 30.184 48.0422 31.4665C48.6106 32.0909 49.4066 32.4601 50.2505 32.4907H50.4105C51.1866 32.4895 51.9347 32.201 52.5105 31.6807C52.8933 31.3232 53.1819 30.8766 53.3505 30.3807C54.1535 31.7955 54.2496 33.5042 53.6102 35C53.4311 35.5219 53.7086 36.0902 54.2302 36.27H54.2302C54.3331 36.3053 54.4415 36.3222 54.5502 36.32C54.9957 36.3448 55.4037 36.0714 55.5502 35.65C56.7302 32.08 55.6602 29 52.6302 27.24V27.24ZM51.1202 30.24C50.899 30.4463 50.6019 30.5513 50.3002 30.53C49.9966 30.5232 49.7098 30.3889 49.5102 30.16C49.307 29.9369 49.2025 29.6413 49.2202 29.34C49.2419 28.7332 49.7431 28.2542 50.3502 28.26H50.4102C50.6869 28.2724 50.9482 28.3905 51.1402 28.59L51.2302 28.68C51.4126 28.8976 51.5056 29.1764 51.4902 29.46C51.4934 29.7744 51.358 30.0743 51.1202 30.28V30.24Z" fill="#3097F5"/>
<path d="M16.377 23.7029C16.7675 24.0935 16.7675 24.7266 16.377 25.1171C15.9865 25.5077 15.3533 25.5077 14.9628 25.1171C14.5723 24.7266 14.5723 24.0934 14.9628 23.7029C15.3533 23.3124 15.9865 23.3124 16.377 23.7029Z" fill="#ADD8FF"/>
<path d="M28 11.48C27.6605 11.4768 27.3234 11.4229 27 11.32C26.645 11.2384 26.3067 11.0964 26 10.9L25.46 12.13C25.749 12.3125 26.062 12.4538 26.39 12.55C26.7779 12.6628 27.1769 12.7332 27.58 12.76V13.66H28.58V12.73V12.73C29.1109 12.6719 29.609 12.4439 30 12.08C30.3258 11.7666 30.5069 11.332 30.5 10.88C30.525 10.518 30.4105 10.1602 30.18 9.87996C29.9705 9.64987 29.7103 9.47181 29.42 9.35996V9.35996C29.0582 9.23166 28.6871 9.13137 28.31 9.05996C28.016 9.00395 27.7281 8.92025 27.45 8.80996C27.2925 8.76578 27.1827 8.62347 27.18 8.45996V8.45996C27.1803 8.30313 27.2642 8.15837 27.4 8.07996C27.6377 7.98416 27.8974 7.95646 28.15 7.99996C28.7231 8.01547 29.2833 8.17357 29.78 8.45996L30.29 7.22996C30.0466 7.08422 29.784 6.97315 29.51 6.89996C29.2086 6.81745 28.9009 6.76058 28.59 6.72996V5.82996H27.59V6.74996C27.0333 6.78531 26.5049 7.00726 26.09 7.37996V7.37996C25.7505 7.70217 25.5619 8.15202 25.57 8.61996C25.5418 8.98231 25.6567 9.34128 25.89 9.61996V9.61996C26.0945 9.85557 26.3562 10.0346 26.65 10.14H26.65C27.0093 10.2676 27.3768 10.3712 27.75 10.45C28.051 10.5032 28.3459 10.587 28.63 10.7C28.7887 10.7545 28.8965 10.9022 28.9 11.07C28.9 11.32 28.58 11.48 28 11.48H28Z" fill="#3097F5"/>
<path d="M27.9998 19.44C33.368 19.44 37.7198 15.0882 37.7198 9.72C37.7198 4.35179 33.368 0 27.9998 0C22.6316 -2.34652e-07 18.2798 4.35179 18.2798 9.72V9.72008C18.2853 15.086 22.6339 19.4345 27.9999 19.44L27.9998 19.44ZM27.9998 2C32.2634 2 35.7198 5.45636 35.7198 9.72C35.7198 13.9836 32.2634 17.44 27.9998 17.44C23.7361 17.44 20.2798 13.9836 20.2798 9.72V9.72C20.2798 5.45636 23.7361 2 27.9998 2V2Z" fill="#ADD8FF"/>
</g>
<defs>
<clipPath id="clip0_593_817">
<rect width="56" height="47.47" fill="white"/>
</clipPath>
</defs>
</svg>
