<svg width="40" height="40" viewBox="0 0 40 40" fill="none" xmlns="http://www.w3.org/2000/svg">
<path d="M21.1221 30.4822C21.1221 33.9485 23.9304 36.7568 27.3967 36.7568H40.0002C40.0002 33.2905 37.1919 30.4822 33.7256 30.4822H21.1221Z" fill="#3097F5"/>
<path d="M21.1221 21.0406H26.8472C26.8472 23.7608 28.3871 26.1282 30.6392 27.3153H27.3967C23.9304 27.3153 21.1221 24.507 21.1221 21.0406Z" fill="#3097F5"/>
<path d="M18.8781 9.36178C18.8781 5.89548 16.0698 3.08716 12.6035 3.08716H0C0 6.55347 2.80832 9.36178 6.27463 9.36178H18.8781Z" fill="#3097F5"/>
<path d="M18.8779 18.8036H13.1527C13.1527 16.0835 11.6129 13.7161 9.36084 12.529H12.6033C16.0696 12.529 18.8779 15.3373 18.8779 18.8036Z" fill="#3097F5"/>
<path d="M9.43625 21.1212V33.7247C9.43625 37.191 6.62793 39.9994 3.16162 39.9994V27.3958C3.16162 23.9295 5.96994 21.1212 9.43625 21.1212Z" fill="#3097F5"/>
<path d="M18.8781 21.1154V26.8406C16.158 26.8406 13.7906 28.3804 12.6035 30.6325V27.39C12.6035 23.9305 15.4186 21.1154 18.8781 21.1154Z" fill="#3097F5"/>
<path d="M30.5771 18.8781C34.0435 18.8781 36.8518 16.0698 36.8518 12.6035V0C33.3855 0 30.5771 2.80832 30.5771 6.27463V18.8781Z" fill="#3097F5"/>
<path d="M21.1284 18.878V13.1529C23.8486 13.1529 26.216 11.613 27.403 9.36096V12.6034C27.4098 16.0697 24.5947 18.878 21.1284 18.878Z" fill="#3097F5"/>
</svg>
