<svg width="56" height="56" viewBox="0 0 56 56" fill="none" xmlns="http://www.w3.org/2000/svg">
<g clip-path="url(#clip0_593_842)">
<path d="M54.9997 22.67H49.9997C49.4668 22.8149 49.1521 23.3643 49.297 23.8973C49.39 24.2396 49.6574 24.507 49.9997 24.6H54.9997C55.5327 24.4552 55.8473 23.9057 55.7025 23.3728C55.6094 23.0305 55.342 22.7631 54.9997 22.67Z" fill="#3097F5"/>
<path d="M49.9998 20.85C50.2572 20.849 50.5044 20.7487 50.6898 20.57L53.1698 18C53.5255 17.6164 53.5255 17.0235 53.1698 16.64C52.7848 16.278 52.1847 16.278 51.7998 16.64L49.2998 19.21C48.9378 19.5949 48.9378 20.195 49.2998 20.58C49.4892 20.7574 49.7402 20.8542 49.9998 20.85Z" fill="#3097F5"/>
<path d="M50.7299 26.77C50.2527 26.492 49.6405 26.6535 49.3625 27.1307C49.1786 27.4463 49.1815 27.8371 49.3699 28.15L51.8799 30.62C52.0592 30.8018 52.3046 30.9029 52.5599 30.9C53.1106 30.8573 53.5223 30.3763 53.4796 29.8256C53.4631 29.6131 53.3791 29.4114 53.2399 29.25L50.7299 26.77Z" fill="#3097F5"/>
<path d="M45.7598 20.38V14.91V14.91C45.7503 14.5752 45.5739 14.2674 45.2898 14.09C44.9995 13.92 44.6401 13.92 44.3498 14.09L41.4898 15.52C38.6421 16.9944 35.4865 17.7756 32.2798 17.8H24.8098C21.4962 17.8304 18.8347 20.5412 18.865 23.8547C18.8795 25.4356 19.5173 26.9468 20.6398 28.06C21.7796 29.1643 23.3028 29.7843 24.8898 29.79H26.6598L28.5998 35.48C28.9761 36.5717 30.0051 37.3032 31.1598 37.3H33.7198C34.271 37.2651 34.6894 36.7899 34.6545 36.2387C34.6493 36.1576 34.6343 36.0775 34.6098 36L32.1298 29.79H32.4398C35.5911 29.7828 38.7005 30.5122 41.5198 31.92L44.4398 33.38C44.5727 33.4482 44.7204 33.4825 44.8698 33.48C45.0497 33.4831 45.2267 33.4345 45.3798 33.34C45.663 33.1584 45.8359 32.8465 45.8398 32.51V27.04V27.04C47.3297 26.6098 48.3514 25.2408 48.3398 23.69V23.69C48.3133 22.1351 47.2612 20.7853 45.7598 20.38L45.7598 20.38ZM24.8798 27.91C22.6535 27.9159 20.8334 26.1359 20.7898 23.91V23.91C20.7744 21.7669 22.4314 19.9829 24.5698 19.84V19.84C23.9697 21.2133 23.772 22.7288 23.9998 24.21C24.2903 25.6095 24.9858 26.8927 25.9998 27.9L24.8798 27.91ZM32.2898 35.41H31.1598C30.8312 35.4078 30.5393 35.1998 30.4298 34.89L28.6898 29.81H30.0498L32.2898 35.41ZM42.3898 30.19H42.3898C39.339 28.6593 35.9731 27.8615 32.5598 27.86H28.8998C27.4003 26.9869 26.3182 25.544 25.8998 23.86V23.86C25.6966 22.4358 25.9783 20.9847 26.6998 19.74H32.2598H32.2598C35.7834 19.719 39.2517 18.8622 42.3798 17.24L43.7998 16.5V21.21V26.21V30.92L42.3898 30.19ZM45.9198 24.8C45.8816 24.8424 45.8379 24.8794 45.7898 24.91V22.51C46.4581 23.018 46.5882 23.9716 46.0802 24.6399C46.0372 24.6965 45.9903 24.75 45.9398 24.8L45.9198 24.8Z" fill="#ADD8FF"/>
<path d="M24.27 34.14C23.7177 34.14 23.27 34.5877 23.27 35.14V42.8V42.7999C23.2645 44.6036 21.8037 46.0644 20 46.07H5.20003C3.39634 46.0645 1.93552 44.6037 1.93003 42.8V13.2L1.93003 13.2C1.9355 11.3963 3.39629 9.93548 5.19998 9.92996H11.54V9.92996C11.5353 9.97985 11.5353 10.0301 11.54 10.08V10.08C11.54 10.693 12.0369 11.19 12.65 11.19C13.263 11.19 13.76 10.693 13.76 10.08V10.08C13.7647 10.0301 13.7647 9.97985 13.76 9.92996H20C21.8115 9.91339 23.2933 11.3684 23.3099 13.1798C23.31 13.1865 23.31 13.1932 23.31 13.2C23.1652 13.7329 23.4798 14.2824 24.0128 14.4272C24.5457 14.5721 25.0952 14.2574 25.24 13.7245C25.2867 13.5527 25.2867 13.3717 25.24 13.2V13.2C25.2346 10.3226 22.8976 7.99445 20.0202 7.99989C20.0135 7.9999 20.0068 7.99993 20.0001 7.99996H5.2H5.2C2.32812 7.99996 0 10.3281 0 13.2C0 13.2 0 13.2 0 13.2V42.8C-4.33642e-07 45.6718 2.32812 48 5.2 48H20C22.8735 48 25.2045 45.6735 25.21 42.8V35.11C25.1954 34.5919 24.7874 34.1709 24.27 34.14H24.27Z" fill="#3097F5"/>
<path d="M8.38994 15.88C8.90909 15.6915 9.17719 15.1179 8.98877 14.5988C8.8877 14.3203 8.66839 14.101 8.38994 14H6.38994C5.85699 13.8551 5.30753 14.1698 5.16269 14.7027C5.01785 15.2357 5.33249 15.7851 5.86544 15.93C6.03716 15.9766 6.21822 15.9766 6.38994 15.93L8.38994 15.88Z" fill="#3097F5"/>
<path d="M20.7901 14.91C20.7901 14.3577 20.3424 13.91 19.7901 13.91H12.5901C12.0572 13.7652 11.5077 14.0798 11.3629 14.6128C11.2181 15.1457 11.5327 15.6952 12.0656 15.84C12.2374 15.8867 12.4184 15.8867 12.5901 15.84H19.7901H19.7901C20.3162 15.8413 20.7533 15.4348 20.7901 14.91H20.7901Z" fill="#3097F5"/>
<path d="M18.9998 34.11C18.882 33.7665 18.5873 33.5139 18.2298 33.45L14.8998 33L13.4098 30C13.1327 29.5223 12.5207 29.3596 12.043 29.6368C11.8924 29.7241 11.7672 29.8493 11.6798 30L10.1898 33L6.8598 33.48C6.31986 33.5961 5.97627 34.1279 6.09238 34.6679C6.12942 34.8401 6.21133 34.9996 6.3298 35.13L8.7398 37.47L8.1698 40.79C8.11646 41.1491 8.2619 41.5089 8.5498 41.73C8.84468 41.934 9.22623 41.9645 9.5498 41.81L12.5498 40.24L15.5498 41.81C15.6891 41.8814 15.8433 41.919 15.9998 41.92C16.2048 41.9166 16.4038 41.8502 16.5698 41.73C16.8577 41.5089 17.0031 41.1491 16.9498 40.79L16.3798 37.47L18.7898 35.13C19.0453 34.8561 19.1263 34.4625 18.9998 34.11L18.9998 34.11ZM14.6398 36.42C14.4178 36.6434 14.3141 36.9584 14.3598 37.27L14.6898 39.16L12.9998 38.27C12.7219 38.1206 12.3877 38.1206 12.1098 38.27L10.4098 39.16L10.7398 37.27C10.7855 36.9584 10.6818 36.6434 10.4598 36.42L9.0798 35.08L10.9998 34.8C11.3115 34.7515 11.5821 34.5588 11.7298 34.28L12.5698 32.56L13.4198 34.28V34.28C13.5675 34.5588 13.8381 34.7515 14.1498 34.8L16.0398 35.08L14.6398 36.42Z" fill="#ADD8FF"/>
<path d="M8.69002 27.24C10.5788 27.24 12.11 25.7088 12.11 23.82C12.11 21.9312 10.5788 20.4 8.69002 20.4C6.80121 20.4 5.27002 21.9312 5.27002 23.82C5.27002 25.7088 6.80121 27.24 8.69002 27.24ZM8.69002 22.34C9.51291 22.3345 10.1844 22.9971 10.1899 23.82C10.1955 24.6429 9.53284 25.3145 8.70995 25.32C7.88706 25.3255 7.21552 24.6628 7.21002 23.84C7.20998 23.8333 7.20998 23.8267 7.21002 23.82C7.21002 23.0026 7.87264 22.34 8.69002 22.34V22.34Z" fill="#ADD8FF"/>
</g>
<defs>
<clipPath id="clip0_593_842">
<rect width="56" height="40" fill="white" transform="translate(0 8)"/>
</clipPath>
</defs>
</svg>
