<svg width="56" height="56" viewBox="0 0 56 56" fill="none" xmlns="http://www.w3.org/2000/svg">
<g clip-path="url(#clip0_593_810)">
<path d="M51.8399 40.1V40.1C51.1796 33.2648 47.623 27.0398 42.0699 23V21.8V21.8002C42.0382 12.5284 36.7033 4.09276 28.34 0.0900564V0.0900564C28.0764 -0.0301816 27.7736 -0.0301816 27.51 0.0900564L27.51 0.0900574C19.1434 4.09419 13.8078 12.5347 13.7799 21.81V23H13.7799C8.22306 27.0378 4.66264 33.2631 3.99992 40.1H3.99992C3.97949 40.3703 4.06971 40.6374 4.24992 40.84H4.24992C4.43601 41.0407 4.69624 41.1563 4.96992 41.16H13.9699L14.6999 43.7C15.422 46.1844 17.6927 47.8976 20.2799 47.91H21.8299V47.91C23.0714 50.8669 24.9098 53.5359 27.2299 55.75C27.4096 55.9085 27.6403 55.9972 27.8799 56C28.1208 56.004 28.3538 55.9143 28.5299 55.75L28.5299 55.75C30.8786 53.5455 32.7416 50.8753 33.9999 47.91H35.5599C38.1345 47.8865 40.3878 46.1742 41.0999 43.7L41.8299 41.16H50.9999C51.2297 41.1436 51.4444 41.0398 51.5999 40.87C51.7942 40.6639 51.8827 40.3799 51.8399 40.1L51.8399 40.1ZM13.7799 25.46V39.23H6.04991C6.83827 33.8431 9.59165 28.9383 13.7799 25.46V25.46ZM27.9199 53.69V53.69C26.3088 51.9884 24.9849 50.0363 23.9999 47.91H31.8199H31.8199C30.8446 50.0369 29.5272 51.9895 27.9199 53.69ZM39.2499 43.17C38.7723 44.8322 37.2593 45.9832 35.5299 46H20.3199C18.5938 45.9924 17.0791 44.8483 16.5999 43.19L15.7099 40.07V21.81V21.8097C15.7181 13.432 20.4397 5.77179 27.9202 1.99989L27.9202 1.9999C35.4061 5.76746 40.1324 13.4295 40.1399 21.81V40.05L39.2499 43.17ZM42.0699 39.23V25.46C46.2522 28.9418 49.0014 33.8455 49.7899 39.23H42.0699Z" fill="#3097F5"/>
<path d="M27.9099 36.27C31.6433 36.27 34.6699 33.2435 34.6699 29.51C34.6699 25.7766 31.6434 22.75 27.9099 22.75C24.1765 22.75 21.1499 25.7766 21.1499 29.51V29.51C21.1499 33.2434 24.1765 36.27 27.9099 36.27ZM27.9099 24.68C30.5774 24.6745 32.7444 26.8325 32.7499 29.5C32.7554 32.1675 30.5974 34.3345 27.9299 34.34C25.2624 34.3455 23.0954 32.1875 23.0899 29.52C23.0899 29.5167 23.0899 29.5133 23.0899 29.51V29.51C23.0899 26.8464 25.2463 24.6855 27.9099 24.68H27.9099Z" fill="#ADD8FF"/>
<path d="M27.9099 18.75C30.5774 18.7555 32.7443 16.5975 32.7498 13.93C32.7554 11.2624 30.5974 9.0955 27.9298 9.08998C25.2623 9.08446 23.0954 11.2424 23.0899 13.91C23.0898 13.9166 23.0898 13.9233 23.0899 13.93C23.0899 16.592 25.2478 18.75 27.9099 18.75ZM27.9099 11.03C29.5115 11.0355 30.8054 12.3383 30.7998 13.9399C30.7943 15.5416 29.4915 16.8354 27.8899 16.8299C26.2921 16.8244 24.9999 15.5277 24.9999 13.9299V13.9299C24.9833 12.3284 26.2681 11.0167 27.8697 11.0001C27.8831 10.9999 27.8965 10.9999 27.9098 10.9999L27.9099 11.03Z" fill="#ADD8FF"/>
<path d="M7.46006 45C6.90777 45 6.46006 45.4477 6.46006 46V48.7C6.31522 49.233 6.62985 49.7824 7.16281 49.9272C7.69576 50.0721 8.24522 49.7575 8.39006 49.2245C8.43672 49.0528 8.43672 48.8717 8.39006 48.7V46V46C8.39134 45.4739 7.98482 45.0368 7.46004 45H7.46006Z" fill="#ADD8FF"/>
<path d="M12.3599 47.6899C11.8076 47.6899 11.3599 48.1377 11.3599 48.6899V51.2899C11.4941 51.8257 12.0373 52.1511 12.573 52.0168C12.9308 51.9272 13.2102 51.6478 13.2999 51.2899V48.6899V48.6899C13.3008 48.1603 12.8886 47.7217 12.3599 47.6899H12.3599Z" fill="#ADD8FF"/>
<path d="M48.9 45C48.3477 45 47.9 45.4477 47.9 46V48.7C47.7552 49.233 48.0698 49.7824 48.6027 49.9272C49.1357 50.0721 49.6852 49.7575 49.83 49.2245C49.8767 49.0528 49.8767 48.8717 49.83 48.7V46V46C49.8313 45.4739 49.4248 45.0368 48.9 45H48.9Z" fill="#ADD8FF"/>
<path d="M44.0001 47.6899C43.4478 47.6899 43.0001 48.1377 43.0001 48.6899V51.2899C42.8553 51.8229 43.1699 52.3724 43.7028 52.5172C44.2358 52.662 44.7853 52.3474 44.9301 51.8144C44.9768 51.6427 44.9768 51.4617 44.9301 51.2899V48.6899V48.6899C44.9314 48.1639 44.5249 47.7268 44.0001 47.6899H44.0001Z" fill="#ADD8FF"/>
<path d="M35.6402 39.23H20.1902C19.6573 39.0851 19.1078 39.3997 18.963 39.9327C18.8181 40.4657 19.1328 41.0151 19.6657 41.16C19.8375 41.2066 20.0185 41.2066 20.1902 41.16H35.6402C36.1732 41.0151 36.4878 40.4657 36.343 39.9327C36.25 39.5904 35.9825 39.323 35.6402 39.23Z" fill="#ADD8FF"/>
</g>
<defs>
<clipPath id="clip0_593_810">
<rect width="47.85" height="56" fill="white" transform="translate(4)"/>
</clipPath>
</defs>
</svg>
