<svg width="56" height="56" viewBox="0 0 56 56" fill="none" xmlns="http://www.w3.org/2000/svg">
<g clip-path="url(#clip0_499_69)">
<path d="M34.8201 16.94C28.7093 13.1709 20.7 15.0692 16.9309 21.18C13.1618 27.2908 15.0601 35.3001 21.1709 39.0692C27.2817 42.8383 35.291 40.94 39.0601 34.8292C41.6406 30.6454 41.6406 25.3639 39.0601 21.18L37.6001 22.64V22.64C38.521 24.2761 39.0033 26.1226 39.0001 28V28C39.0001 34.0752 34.0752 39 28.0001 39C21.9249 39 17.0001 34.0752 17.0001 28C17.0001 21.9249 21.9249 17 28.0001 17C29.8776 16.9969 31.724 17.4791 33.3601 18.4L34.8201 16.94Z" fill="#3097F5"/>
<path d="M28.7 23.06C28.4689 23.0195 28.2346 22.9994 28 23C25.2386 23 23 25.2386 23 28C23 30.7614 25.2386 33 28 33C30.7614 33 33 30.7614 33 28V28C33.0006 27.7653 32.9805 27.5311 32.94 27.3L30.12 30.12C29.6951 30.547 29.1515 30.8362 28.56 30.95C28.1896 31.0167 27.8103 31.0167 27.44 30.95C26.8485 30.8362 26.3049 30.547 25.88 30.12C24.7102 28.9487 24.7102 27.0512 25.88 25.88L28.7 23.06Z" fill="#ADD8FF"/>
<path d="M27.2899 28.71C27.6789 29.1022 28.312 29.1047 28.7041 28.7158C28.7061 28.7139 28.708 28.712 28.7099 28.71L48.4999 8.92003L51.7299 8.27003C51.9228 8.2321 52.1002 8.13819 52.2399 8.00003L54.3599 5.88003C54.7565 5.49568 54.7665 4.86259 54.3821 4.46599C54.2753 4.35576 54.1445 4.2716 53.9999 4.22003L52.3599 3.67003L51.7799 2.00003C51.6067 1.47563 51.0411 1.19097 50.5167 1.36423C50.3669 1.41372 50.231 1.49795 50.1199 1.61003L47.9999 3.76003C47.8618 3.89981 47.7679 4.07719 47.7299 4.27003L47.0799 7.50003L27.2899 27.29H27.2899C26.8978 27.679 26.8952 28.3121 27.2841 28.7042C27.2861 28.7062 27.288 28.7081 27.2899 28.71H27.2899ZM49.6299 5.00003L50.3899 4.23003L50.5899 4.82003V4.82003C50.6896 5.11715 50.9228 5.35035 51.2199 5.45003L51.8099 5.65003L50.9999 6.37003L49.2399 6.73003L49.6299 5.00003Z" fill="#3097F5"/>
<path d="M9.61985 11C10.0863 11.2957 10.7042 11.1572 10.9999 10.6908C11.2071 10.3639 11.2071 9.94684 10.9999 9.61998L9.61985 8.19998C9.22773 7.80785 8.59197 7.80785 8.19985 8.19998C7.80773 8.5921 7.80773 9.22786 8.19985 9.61998L9.61985 11Z" fill="#3097F5"/>
<path d="M46.3799 45C46.0842 44.5335 45.4663 44.3951 44.9999 44.6908C44.5334 44.9865 44.395 45.6044 44.6907 46.0708C44.7697 46.1954 44.8753 46.301 44.9999 46.38L46.4099 47.8C46.802 48.1921 47.4378 48.1921 47.8299 47.8C48.222 47.4079 48.222 46.7721 47.8299 46.38L46.3799 45Z" fill="#3097F5"/>
<path d="M9.61985 45L8.19985 46.38C7.80773 46.7721 7.80773 47.4079 8.19985 47.8C8.59198 48.1921 9.22773 48.1921 9.61985 47.8L10.9999 46.38C11.4663 46.0843 11.6047 45.4665 11.309 45C11.0134 44.5335 10.3955 44.3951 9.92905 44.6908C9.80443 44.7698 9.69885 44.8754 9.61985 45H9.61985Z" fill="#3097F5"/>
<path d="M55 27H49V27C48.8016 22.8157 47.3563 18.7864 44.85 15.43L43.42 16.86V16.86C45.5726 19.8207 46.8165 23.3441 47 27H45.68C45.1277 27 44.68 27.4477 44.68 28C44.68 28.5523 45.1277 29 45.68 29H47C46.5002 38.7266 38.7266 46.5002 29 47V45.68C29 45.1277 28.5523 44.68 28 44.68C27.4477 44.68 27 45.1277 27 45.68V47C17.2929 46.4755 9.5475 38.7085 9.05 29H10.32C10.8723 29 11.32 28.5523 11.32 28C11.32 27.4477 10.8723 27 10.32 27H9.05L9.05 27C9.57215 17.311 17.311 9.5722 27 9.05V10.32C27 10.8723 27.4477 11.32 28 11.32C28.5523 11.32 29 10.8723 29 10.32V9H29C32.6559 9.18347 36.1793 10.4274 39.14 12.58L40.57 11.15L40.57 11.15C37.2136 8.64367 33.1843 7.19842 29 7V1C29 0.447715 28.5523 0 28 0C27.4477 0 27 0.447715 27 1V7.05H27C16.2079 7.57737 7.5774 16.2079 7.05 27H1C0.447715 27 0 27.4477 0 28C2.41411e-08 28.5523 0.447715 29 1 29H7.05L7.05 29C7.55242 39.8116 16.1897 48.4705 27 49V55C27 55.5523 27.4477 56 28 56C28.5523 56 29 55.5523 29 55V49H29C39.8298 48.4955 48.4955 39.8298 49 29H55C55.5523 29 56 28.5523 56 28C56 27.4477 55.5523 27 55 27L55 27Z" fill="#ADD8FF"/>
</g>
<defs>
<clipPath id="clip0_499_69">
<rect width="56" height="56" fill="white"/>
</clipPath>
</defs>
</svg>
